<svg xmlns="http://www.w3.org/2000/svg" viewBox="0 0 32 32"><title>music-notes-music-2</title><g><rect x="30.48" y="19.81" width="1.52" height="3.05" fill="#ffffff"></rect><rect x="30.48" y="13.72" width="1.52" height="1.52" fill="#ffffff"></rect><rect x="30.48" y="10.67" width="1.52" height="1.52" fill="#ffffff"></rect><rect x="30.48" y="7.62" width="1.52" height="1.53" fill="#ffffff"></rect><rect x="28.96" y="18.29" width="1.52" height="1.52" fill="#ffffff"></rect><rect x="28.96" y="12.19" width="1.52" height="1.53" fill="#ffffff"></rect><rect x="28.96" y="9.15" width="1.52" height="1.52" fill="#ffffff"></rect><rect x="28.96" y="1.53" width="1.52" height="3.04" fill="#ffffff"></rect><polygon points="27.43 16.76 27.43 15.24 25.91 15.24 25.91 25.91 22.86 25.91 22.86 27.43 21.34 27.43 21.34 30.48 22.86 30.48 22.86 32 25.91 32 25.91 30.48 27.43 30.48 27.43 18.29 28.96 18.29 28.96 16.76 27.43 16.76" fill="#ffffff"></polygon><rect x="27.43" y="4.57" width="1.53" height="1.53" fill="#ffffff"></rect><rect x="25.91" width="3.05" height="1.53" fill="#ffffff"></rect><rect x="25.91" y="6.1" width="1.52" height="1.52" fill="#ffffff"></rect><rect x="24.38" y="7.62" width="1.53" height="1.53" fill="#ffffff"></rect><rect x="24.38" y="1.53" width="1.53" height="1.52" fill="#ffffff"></rect><rect x="22.86" y="12.19" width="1.52" height="1.53" fill="#ffffff"></rect><rect x="22.86" y="6.1" width="1.52" height="1.52" fill="#ffffff"></rect><rect x="21.34" width="3.04" height="1.53" fill="#ffffff"></rect><rect x="21.34" y="19.81" width="1.52" height="3.05" fill="#ffffff"></rect><rect x="21.34" y="13.72" width="1.52" height="1.52" fill="#ffffff"></rect><rect x="21.34" y="10.67" width="1.52" height="1.52" fill="#ffffff"></rect><rect x="21.34" y="4.57" width="1.52" height="1.53" fill="#ffffff"></rect><rect x="18.29" y="22.86" width="3.05" height="1.52" fill="#ffffff"></rect><rect x="18.29" y="18.29" width="3.05" height="1.52" fill="#ffffff"></rect><rect x="19.81" y="12.19" width="1.53" height="1.53" fill="#ffffff"></rect><rect x="19.81" y="1.53" width="1.53" height="3.04" fill="#ffffff"></rect><rect x="16.77" y="19.81" width="1.52" height="3.05" fill="#ffffff"></rect><polygon points="16.77 30.48 16.77 28.96 18.29 28.96 18.29 27.43 16.77 27.43 16.77 25.91 15.24 25.91 15.24 27.43 13.72 27.43 13.72 28.96 15.24 28.96 15.24 30.48 16.77 30.48" fill="#ffffff"></polygon><rect x="12.19" width="3.05" height="1.53" fill="#ffffff"></rect><polygon points="12.19 9.15 12.19 10.67 10.67 10.67 10.67 13.72 12.19 13.72 12.19 15.24 15.24 15.24 15.24 13.72 16.77 13.72 16.77 1.53 15.24 1.53 15.24 9.15 12.19 9.15" fill="#ffffff"></polygon><rect x="10.67" y="21.34" width="1.52" height="1.52" fill="#ffffff"></rect><rect x="9.15" y="22.86" width="1.52" height="1.52" fill="#ffffff"></rect><rect x="9.15" y="19.81" width="1.52" height="1.53" fill="#ffffff"></rect><rect x="9.15" y="1.53" width="3.04" height="1.52" fill="#ffffff"></rect><rect x="7.62" y="27.43" width="1.53" height="1.53" fill="#ffffff"></rect><rect x="7.62" y="21.34" width="1.53" height="1.52" fill="#ffffff"></rect><rect x="6.1" y="25.91" width="1.52" height="1.52" fill="#ffffff"></rect><rect x="6.1" y="3.05" width="3.05" height="1.52" fill="#ffffff"></rect><rect x="4.58" y="27.43" width="1.52" height="1.53" fill="#ffffff"></rect><polygon points="1.53 19.81 4.58 19.81 4.58 18.29 6.1 18.29 6.1 4.57 4.58 4.57 4.58 13.72 1.53 13.72 1.53 15.24 0 15.24 0 18.29 1.53 18.29 1.53 19.81" fill="#ffffff"></polygon><rect x="3.05" y="25.91" width="1.53" height="1.52" fill="#ffffff"></rect><rect x="1.53" y="27.43" width="1.52" height="1.53" fill="#ffffff"></rect></g></svg>