<svg xmlns="http://www.w3.org/2000/svg" viewBox="0 0 32 32"><title>real-estate-building-4</title><g><path d="M29.715,12.19h-1.53v4.57h-7.62v4.57h7.62v1.52H16V1.52h1.53V0h-3.05V7.62h-1.53V9.14h1.53v3.05h-1.53V10.66h-1.52v1.53H9.9V10.66H8.375v1.53H6.855V10.66H5.335v1.53H3.805V9.14H2.285V32h27.43Zm-4.57,7.62H22.1V18.28h3.05ZM11.425,30.47H3.805V27.43h7.62Zm3.05,0h-1.53V25.9H3.805V18.28h10.67Zm0-13.71h-1.53V15.24h-1.52v1.52H9.9V15.24H8.375v1.52H6.855V15.24H5.335v1.52H3.805V13.71h10.67Zm4.57,13.71H16V27.43h3.05Zm0-4.57H16V24.38h3.05Zm4.57,4.57h-3.05V24.38h3.05Zm4.57,0h-3.04V27.43h3.04Zm0-4.57h-3.04V24.38h3.04Z" fill="#ffffff"></path><rect x="23.615" y="13.71" width="3.05" height="1.53" fill="#ffffff"></rect><path d="M19.045,7.62v4.57h9.14V9.14h-1.52V6.09h-1.52V7.62Zm4.57,3.04h-3.05V9.14h3.05Z" fill="#ffffff"></path><rect x="23.615" y="4.57" width="1.53" height="1.52" fill="#ffffff"></rect><rect x="20.565" y="3.04" width="3.05" height="1.53" fill="#ffffff"></rect><rect x="17.525" y="13.71" width="3.04" height="1.53" fill="#ffffff"></rect><rect x="17.525" y="19.81" width="1.52" height="1.52" fill="#ffffff"></rect><rect x="17.525" y="4.57" width="1.52" height="1.52" fill="#ffffff"></rect><rect x="17.525" y="1.52" width="3.04" height="1.52" fill="#ffffff"></rect><rect x="11.425" y="22.85" width="1.52" height="1.53" fill="#ffffff"></rect><rect x="11.425" y="19.81" width="1.52" height="1.52" fill="#ffffff"></rect><rect x="8.375" y="22.85" width="1.53" height="1.53" fill="#ffffff"></rect><rect x="8.375" y="19.81" width="1.53" height="1.52" fill="#ffffff"></rect><polygon points="12.945 7.62 12.945 6.09 9.905 6.09 9.905 3.04 8.375 3.04 8.375 6.09 5.335 6.09 5.335 7.62 12.945 7.62" fill="#ffffff"></polygon><rect x="5.335" y="22.85" width="1.52" height="1.53" fill="#ffffff"></rect><rect x="5.335" y="19.81" width="1.52" height="1.52" fill="#ffffff"></rect><rect x="3.805" y="7.62" width="1.53" height="1.52" fill="#ffffff"></rect></g></svg>